<svg width="683" height="683" viewBox="0 0 683 683" fill="none" xmlns="http://www.w3.org/2000/svg">
<g clip-path="url(#clip0_528_73)">
<path d="M309.467 1.33317C130.8 18.6665 -5.33332 172.4 0.400009 350.666C2.13334 402.533 13.3333 447.466 36.1333 493.2C69.3333 560.133 122.4 613.2 189.467 646.533C298.133 700.667 426.667 693.2 528 626.933C567.6 601.067 605.2 562.666 630.8 521.866C640.667 506.4 655.333 476.266 662 458.133C668.8 439.733 676.667 408 679.467 387.333C682.533 366.4 682.933 317.866 680.267 299.333C672.4 244 654.8 196.8 625.6 152.8C613.333 134.133 600.933 118.933 583.6 101.467C530.4 47.7332 464.267 14.3998 388.667 3.19983C372.4 0.799834 326.533 -0.266832 309.467 1.33317ZM351.733 92.7998C358 95.3332 363.467 100.533 366.8 106.933C369.2 111.733 369.333 116.533 369.333 240.666C369.333 311.466 369.733 369.333 370.4 369.333C370.933 369.333 386.4 354.266 404.667 336C435.6 304.933 438.533 302.4 445.067 300.533C453.867 297.866 460.4 298.933 468.667 304.133C475.6 308.533 481.333 318.666 481.333 326.666C481.333 339.2 482.133 338.266 418.933 401.733C386.133 434.666 357.2 462.666 354.667 464C347.467 467.6 341.867 468.4 334.267 466.666C327.467 465.066 325.733 463.466 266.8 404.8C226.267 364.4 205.6 342.933 203.867 339.333C200.667 332.533 200.667 322.266 203.867 315.2C208 306.133 219.467 298.666 229.333 298.666C239.467 298.666 242.4 300.8 277.333 335.6C296.133 354.133 311.867 369.333 312.4 369.333C312.933 369.333 313.333 311.466 313.333 240.666C313.333 116.533 313.467 111.733 315.867 106.933C322.933 93.3332 338.4 87.1998 351.733 92.7998ZM460.533 505.466C482.133 510.933 488.533 539.333 471.6 554.267C468.933 556.667 464.533 559.2 461.733 559.867C454.8 561.867 227.867 561.867 220.933 559.867C218.133 559.2 213.733 556.667 211.067 554.267C194.533 539.733 200.133 512.266 220.933 505.733C227.867 503.6 452.133 503.333 460.533 505.466Z" fill="#1D3458"/>
</g>
<defs>
<clipPath id="clip0_528_73">
<rect width="682.667" height="682.667" fill="white"/>
</clipPath>
</defs>
</svg>
