<svg width="21" height="21" viewBox="0 0 21 21" fill="none" xmlns="http://www.w3.org/2000/svg">
<path fill-rule="evenodd" clip-rule="evenodd" d="M5.45093 4.69434V7.69434H4.45093C3.92049 7.69434 3.41179 7.90505 3.03671 8.28012C2.66164 8.6552 2.45093 9.1639 2.45093 9.69434V12.6943C2.45093 13.2248 2.66164 13.7335 3.03671 14.1085C3.41179 14.4836 3.92049 14.6943 4.45093 14.6943H5.45093V16.6943C5.45093 17.2248 5.66164 17.7335 6.03671 18.1085C6.41179 18.4836 6.92049 18.6943 7.45093 18.6943H13.4509C13.9814 18.6943 14.4901 18.4836 14.8651 18.1085C15.2402 17.7335 15.4509 17.2248 15.4509 16.6943V14.6943H16.4509C16.9814 14.6943 17.4901 14.4836 17.8651 14.1085C18.2402 13.7335 18.4509 13.2248 18.4509 12.6943V9.69434C18.4509 9.1639 18.2402 8.6552 17.8651 8.28012C17.4901 7.90505 16.9814 7.69434 16.4509 7.69434H15.4509V4.69434C15.4509 4.1639 15.2402 3.6552 14.8651 3.28012C14.4901 2.90505 13.9814 2.69434 13.4509 2.69434H7.45093C6.92049 2.69434 6.41179 2.90505 6.03671 3.28012C5.66164 3.6552 5.45093 4.1639 5.45093 4.69434ZM13.4509 4.69434H7.45093V7.69434H13.4509V4.69434ZM13.4509 12.6943H7.45093V16.6943H13.4509V12.6943Z" fill="#1D3458"/>
</svg>
